<svg width="32" height="29" viewBox="0 0 32 29" fill="none" xmlns="http://www.w3.org/2000/svg">
<path fill-rule="evenodd" clip-rule="evenodd" d="M1.78345 0.583374H3.45011L3.53345 0.600041C5.84371 0.644855 7.86234 2.17228 8.53345 4.38337L8.86678 5.53337H26.2501C27.7852 5.54036 29.2428 6.20843 30.2501 7.36671C31.2546 8.53233 31.6991 10.079 31.4668 11.6L30.4668 18.5C30.1337 21.1449 27.899 23.1376 25.2334 23.1667H15.4334C13.0923 23.158 11.0305 21.6235 10.3501 19.3834L6.13345 5.16671C5.81055 3.94701 4.71179 3.09393 3.45011 3.08337H1.78345C1.09309 3.08337 0.533447 2.52373 0.533447 1.83337C0.533447 1.14302 1.09309 0.583374 1.78345 0.583374ZM12.7501 18.5834C13.1039 19.77 14.1952 20.5834 15.4334 20.5834H25.2334C26.6129 20.5684 27.7811 19.5621 28.0001 18.2L29.0001 11.2834C29.1363 10.4783 28.9143 9.65382 28.3922 9.02601C27.87 8.39819 27.0999 8.02957 26.2834 8.01671H9.61678L12.7501 18.5834Z" fill="#DBDFE6"/>
<path d="M15.0501 25.1667C14.1296 25.1667 13.3834 25.9129 13.3834 26.8334C13.3834 27.7538 14.1296 28.5 15.0501 28.5C15.9706 28.5 16.7168 27.7538 16.7168 26.8334C16.7168 25.9129 15.9706 25.1667 15.0501 25.1667Z" fill="#DBDFE6"/>
<path d="M25.0501 25.1667C24.1296 25.1667 23.3834 25.9129 23.3834 26.8334C23.3834 27.7538 24.1296 28.5 25.0501 28.5C25.9706 28.5 26.7168 27.7538 26.7168 26.8334C26.7168 25.9129 25.9706 25.1667 25.0501 25.1667Z" fill="#DBDFE6"/>
</svg>
