<svg width="34" height="35" viewBox="0 0 34 35" fill="none" xmlns="http://www.w3.org/2000/svg">
<path fill-rule="evenodd" clip-rule="evenodd" d="M20.8167 20.8334C23.4329 20.8864 25.6494 22.7754 26.1167 25.35L26.5 27.25C26.8787 28.8899 26.5065 30.6132 25.4848 31.9507C24.4632 33.2882 22.8984 34.1006 21.2167 34.1667H5.73337C4.04931 34.1066 2.4806 33.2957 1.45768 31.9565C0.434766 30.6174 0.065071 28.8906 0.450037 27.25L0.83337 25.35C1.29343 22.778 3.50441 20.8878 6.1167 20.8334H20.8167ZM21.2167 31.6667C22.0589 31.6591 22.8512 31.2661 23.3667 30.6C24.0275 29.8025 24.28 28.7432 24.05 27.7334L23.6667 25.8334C23.4314 24.426 22.2423 23.376 20.8167 23.3167H6.1167C4.69489 23.3774 3.51135 24.4286 3.28337 25.8334L2.98337 27.75C2.75889 28.7546 3.01111 29.8065 3.6667 30.6C4.16395 31.2437 4.92063 31.6343 5.73337 31.6667H21.2167Z" fill="#DBDFE6"/>
<path fill-rule="evenodd" clip-rule="evenodd" d="M14.3 17.5H12.6334C8.95147 17.5 5.9667 14.5153 5.9667 10.8334V6.43335C5.9667 3.34056 8.47391 0.833354 11.5667 0.833354H15.3334C16.8257 0.819983 18.2613 1.40461 19.3197 2.45675C20.3781 3.5089 20.9712 4.94097 20.9667 6.43335V10.8334C20.9667 14.5153 17.9819 17.5 14.3 17.5ZM11.5667 3.33335C9.85462 3.33335 8.4667 4.72127 8.4667 6.43335V10.8334C8.47564 13.1179 10.3157 14.9727 12.6 15H14.2667C15.3718 15 16.4316 14.561 17.213 13.7796C17.9944 12.9982 18.4334 11.9384 18.4334 10.8334V6.43335C18.4334 4.72127 17.0455 3.33335 15.3334 3.33335H11.5667Z" fill="#DBDFE6"/>
<path d="M32.6334 7.91669H30.3334V5.63335C30.3334 4.943 29.7737 4.38335 29.0834 4.38335C28.393 4.38335 27.8334 4.943 27.8334 5.63335V7.91669H25.5667C24.8763 7.91669 24.3167 8.47633 24.3167 9.16669C24.3167 9.85704 24.8763 10.4167 25.5667 10.4167H27.85V12.7C27.85 13.3904 28.4097 13.95 29.1 13.95C29.7904 13.95 30.35 13.3904 30.35 12.7V10.4167H32.6334C33.3237 10.4167 33.8834 9.85704 33.8834 9.16669C33.8834 8.47633 33.3237 7.91669 32.6334 7.91669Z" fill="#DBDFE6"/>
</svg>
