<svg width="22" height="18" viewBox="0 0 22 18" fill="none" xmlns="http://www.w3.org/2000/svg">
<path fill-rule="evenodd" clip-rule="evenodd" d="M20.94 5.55011L19.89 4.50011C19.3896 3.9941 18.7115 3.70346 18 3.69011H14V3.11011C14 1.59132 12.7688 0.360107 11.25 0.360107H3C2.58579 0.360107 2.25 0.695894 2.25 1.11011C2.25 1.52432 2.58579 1.86011 3 1.86011H11.22C11.9104 1.86011 12.47 2.41975 12.47 3.11011V9.44011C12.47 9.85432 12.8058 10.1901 13.22 10.1901C13.6342 10.1901 13.97 9.85432 13.97 9.44011V5.19011H17.97C18.3014 5.18879 18.6191 5.32237 18.85 5.56011L19.9 6.56011C20.0432 6.70857 20.1464 6.89092 20.2 7.09011H16C15.5858 7.09011 15.25 7.42589 15.25 7.84011C15.25 8.25432 15.5858 8.59011 16 8.59011H20.25V12.8401C20.2636 13.1802 20.138 13.5111 19.902 13.7565C19.6661 14.0018 19.3404 14.1404 19 14.1401H17.89C17.6439 12.9863 16.6247 12.1616 15.445 12.1616C14.2653 12.1616 13.2461 12.9863 13 14.1401H7.66C7.39085 12.9475 6.29272 12.129 5.07293 12.2118C3.85315 12.2945 2.87567 13.2539 2.77011 14.4719C2.66454 15.69 3.4624 16.8032 4.64975 17.0946C5.83711 17.386 7.05968 16.7686 7.53 15.6401H13.14C13.5298 16.5683 14.4383 17.1721 15.445 17.1721C16.4517 17.1721 17.3602 16.5683 17.75 15.6401H19C20.5188 15.6401 21.75 14.4089 21.75 12.8901V7.50011C21.7514 6.768 21.4597 6.06579 20.94 5.55011ZM5.22 15.4801C4.88428 15.4965 4.57256 15.3063 4.43351 15.0003C4.29446 14.6943 4.35624 14.3344 4.58939 14.0923C4.82254 13.8502 5.17983 13.7749 5.49087 13.9023C5.80191 14.0297 6.0037 14.334 6 14.6701C6.0003 15.106 5.65559 15.464 5.22 15.4801ZM14.6815 14.9716C14.8078 15.2792 15.1074 15.4801 15.44 15.4801C15.889 15.4801 16.2545 15.1191 16.26 14.6701C16.2641 14.3376 16.0669 14.0355 15.7608 13.9054C15.4547 13.7754 15.1004 13.843 14.8638 14.0767C14.6272 14.3104 14.5552 14.6639 14.6815 14.9716Z" fill="#FCFAFA"/>
<path d="M9.75 6.00011C9.74461 5.58815 9.41196 5.25549 9 5.25011H1C0.585786 5.25011 0.25 5.58589 0.25 6.00011C0.25 6.41432 0.585786 6.75011 1 6.75011H9C9.41196 6.74472 9.74461 6.41207 9.75 6.00011Z" fill="#FCFAFA"/>
<path d="M9 8.25011H4C3.58579 8.25011 3.25 8.58589 3.25 9.00011C3.25 9.41432 3.58579 9.75011 4 9.75011H9C9.41421 9.75011 9.75 9.41432 9.75 9.00011C9.75 8.58589 9.41421 8.25011 9 8.25011Z" fill="#FCFAFA"/>
</svg>
