<svg width="30" height="28" viewBox="0 0 30 28" fill="none" xmlns="http://www.w3.org/2000/svg">
<path d="M17.7252 11.0634H19.1835C19.3717 11.0634 19.552 10.9912 19.6837 10.8629C19.8154 10.7346 19.8874 10.5611 19.8835 10.3815V8.15498C19.8848 7.80676 19.6055 7.51603 19.2418 7.48701C19.2418 7.48701 18.2064 7.40352 16.9377 7.40352C13.8169 7.40352 12.096 9.17084 12.096 12.3715V14.8346H9.2231C9.03625 14.8308 8.85585 14.8999 8.7237 15.026C8.59154 15.1521 8.51908 15.3243 8.5231 15.5026V17.5343C8.51908 17.7126 8.59154 17.8848 8.7237 18.0109C8.85585 18.137 9.03625 18.2061 9.2231 18.2023H12.0523V26.0787H16.3106V18.2023H18.8773C19.2297 18.1989 19.5269 17.9507 19.5773 17.6178L19.8398 15.5861C19.8665 15.3938 19.8024 15.2001 19.6648 15.0573C19.5312 14.9148 19.3401 14.8337 19.1398 14.8346H16.3106V12.455C16.3102 11.7025 16.9369 11.086 17.7252 11.0634Z" fill="#F0B19E"/>
<path fill-rule="evenodd" clip-rule="evenodd" d="M0.137695 13.8466C0.137695 6.23021 6.60811 0.0559082 14.5898 0.0559082C18.4227 0.0559082 22.0987 1.50885 24.8089 4.09511C27.5192 6.68136 29.0419 10.1891 29.0419 13.8466C29.0419 21.463 22.5714 27.6373 14.5898 27.6373C6.60811 27.6373 0.137695 21.463 0.137695 13.8466ZM26.8544 13.8466C26.8544 7.38304 21.3633 2.1433 14.5898 2.1433C7.82288 2.1586 2.34123 7.38939 2.32519 13.8466C2.32519 20.3101 7.81623 25.5499 14.5898 25.5499C21.3633 25.5499 26.8544 20.3101 26.8544 13.8466Z" fill="#F0B19E"/>
</svg>
