<svg width="27" height="27" viewBox="0 0 27 27" fill="none" xmlns="http://www.w3.org/2000/svg">
<path fill-rule="evenodd" clip-rule="evenodd" d="M8.33301 0.666748H18.2788C22.559 0.666748 26.0288 4.24847 26.0288 8.66675V18.9334C26.0288 23.3517 22.559 26.9334 18.2788 26.9334H8.33301C4.0528 26.9334 0.583008 23.3517 0.583008 18.9334V8.66675C0.583008 4.24847 4.0528 0.666748 8.33301 0.666748ZM24.0913 8.66675C24.0842 5.35608 21.486 2.67408 18.2788 2.66675H8.33301C5.1258 2.67408 2.52761 5.35608 2.52051 8.66675V18.9334C2.52761 22.2441 5.1258 24.9261 8.33301 24.9334H18.2788C21.486 24.9261 24.0842 22.2441 24.0913 18.9334V8.66675Z" fill="#F0B19E"/>
<path fill-rule="evenodd" clip-rule="evenodd" d="M7.75176 13.8001C7.75886 10.6367 10.2414 8.07408 13.3059 8.06675C16.3705 8.07408 18.853 10.6367 18.8601 13.8001C18.8601 16.9665 16.3734 19.5334 13.3059 19.5334C10.2384 19.5334 7.75176 16.9665 7.75176 13.8001ZM16.9226 13.8001C16.9226 11.7382 15.3034 10.0667 13.3059 10.0667C11.3114 10.0741 9.69634 11.7413 9.68926 13.8001C9.68926 15.8619 11.3085 17.5334 13.3059 17.5334C15.3034 17.5334 16.9226 15.8619 16.9226 13.8001Z" fill="#F0B19E"/>
<path d="M18.0334 6.67342C18.0334 5.87444 18.6609 5.22675 19.4349 5.22675C20.2089 5.22675 20.8363 5.87444 20.8363 6.67342C20.8363 7.47239 20.2089 8.12008 19.4349 8.12008C18.6609 8.12008 18.0334 7.47239 18.0334 6.67342Z" fill="#F0B19E"/>
</svg>
