<svg width="24" height="24" viewBox="0 0 24 24" fill="none" xmlns="http://www.w3.org/2000/svg">
<path fill-rule="evenodd" clip-rule="evenodd" d="M5.39272 7.00006C3.96308 7.01204 2.53313 7.00942 1.10338 7.00147C0.699408 6.99907 0.499265 7.13853 0.500002 7.59832C0.508951 12.7252 0.505477 17.8521 0.50653 22.9789C0.506635 23.1742 0.476734 23.3886 0.717096 23.4775C0.726256 23.5088 5.76648 23.5068 5.78006 23.4757C6.04537 23.3724 5.99189 23.1319 5.992 22.924C5.99431 17.8333 5.99021 12.7424 6 7.6517C6.00073 7.18974 5.8426 6.99624 5.39272 7.00006Z" fill="#F0B19E"/>
<path fill-rule="evenodd" clip-rule="evenodd" d="M3.24995 0.125C1.73126 0.125 0.5 1.35626 0.5 2.87495C0.5 4.39383 1.73126 5.625 3.24995 5.625C4.76874 5.625 6 4.39383 6 2.87495C6 1.35626 4.76874 0.125 3.24995 0.125Z" fill="#F0B19E"/>
<path fill-rule="evenodd" clip-rule="evenodd" d="M23.8037 22.7097C23.8069 20.0818 23.8203 17.4538 23.799 14.8261C23.7896 13.6751 23.7483 12.521 23.5064 11.3882C23.1099 9.5309 22.2175 8.08082 20.4449 7.40464C19.2623 6.95357 18.0259 6.92454 16.791 7.09939C15.7536 7.24629 14.798 7.64143 13.9273 8.37589C13.9273 8.10868 13.9264 7.93147 13.9276 7.75447C13.9302 7.35697 13.7452 7.17729 13.3641 7.17911C12.0098 7.18543 10.6555 7.18382 9.30114 7.18018C8.92833 7.17911 8.74949 7.33307 8.75 7.75211C8.75716 12.7948 8.7545 17.8375 8.7547 22.8801C8.7547 23.0735 8.72926 23.2793 8.95306 23.3745C8.97667 23.4057 13.8661 23.4174 13.8659 23.3855C14.1866 23.2415 14.088 22.9375 14.0885 22.69C14.093 20.2029 14.0781 17.7156 14.0915 15.2285C14.0956 14.4508 14.1243 13.6651 14.4602 12.9409C14.8583 12.0828 15.6821 11.711 16.8424 11.8632C17.6406 11.9678 18.1502 12.5083 18.3088 13.45C18.3676 13.7979 18.4115 14.1536 18.4135 14.506C18.4291 17.2418 18.4312 19.9775 18.4426 22.7133C18.4437 22.966 18.3679 23.2642 18.6933 23.3912C18.6821 23.4271 23.6053 23.4054 23.6066 23.3706C23.8715 23.2161 23.8034 22.9468 23.8037 22.7097Z" fill="#F0B19E"/>
</svg>
