<svg width="16" height="21" viewBox="0 0 16 21" fill="none" xmlns="http://www.w3.org/2000/svg">
<path d="M9.46265 11.902C9.46265 10.9852 8.71944 10.242 7.80265 10.242C6.88585 10.242 6.14265 10.9852 6.14265 11.902C6.14127 12.2907 6.27969 12.6669 6.53265 12.962C6.78752 13.2276 6.87588 13.6118 6.76265 13.962L6.55265 14.582C6.47143 14.8608 6.52512 15.1616 6.69778 15.3951C6.87045 15.6286 7.14227 15.768 7.43265 15.772H8.17265C8.47264 15.7719 8.75416 15.6271 8.92872 15.3832C9.10327 15.1392 9.14942 14.826 9.05265 14.542L8.80265 13.922C8.68941 13.5718 8.77777 13.1876 9.03265 12.922C9.2913 12.6431 9.44352 12.282 9.46265 11.902Z" fill="#FCFAFA"/>
<path fill-rule="evenodd" clip-rule="evenodd" d="M10.6926 5.77202C12.0822 5.71692 13.4256 6.27612 14.3657 7.30094C15.3058 8.32576 15.7472 9.71235 15.5726 11.092L14.6226 16.862C14.1655 19.18 12.1045 20.8313 9.74265 20.772H5.86265C3.51752 20.8241 1.47121 19.1904 1.00265 16.892L0.0526477 11.122C-0.278635 8.95102 0.981164 6.85136 3.05265 6.12202V3.00202C3.0521 2.18694 3.38323 1.40672 3.96986 0.840841C4.55649 0.27496 5.34812 -0.0278667 6.16265 0.0020198H9.44265C10.2572 -0.0278667 11.0488 0.27496 11.6354 0.840841C12.2221 1.40672 12.5532 2.18694 12.5526 3.00202C12.5526 3.41623 12.2169 3.75202 11.8026 3.75202C11.3884 3.75202 11.0526 3.41623 11.0526 3.00202C11.0148 2.14965 10.2952 1.48815 9.44265 1.52202H6.16265C5.31011 1.48815 4.59051 2.14965 4.55265 3.00202V5.77202H10.6926ZM12.8026 16.562L13.8026 10.772C13.9019 10.023 13.6638 9.26847 13.1526 8.71202C12.531 8.00708 11.6324 7.60892 10.6926 7.62202H4.91265C3.97604 7.60387 3.07796 7.99449 2.45265 8.69202C1.95367 9.26184 1.73381 10.024 1.85265 10.772L2.80265 16.562C3.1127 17.9884 4.40434 18.9845 5.86265 18.922H9.74265C11.2009 18.9845 12.4926 17.9884 12.8026 16.562Z" fill="#FCFAFA"/>
</svg>
