<svg width="28" height="27" viewBox="0 0 28 27" fill="none" xmlns="http://www.w3.org/2000/svg">
<path d="M3.16675 2.66663H24.8334C26.8417 2.66663 27.3334 2.16957 27.3334 1.45695C27.3334 0.744323 26.8417 0.166626 24.8334 0.166626H3.16675C1.15844 0.166626 0.666748 0.744323 0.666748 1.45695C0.666748 2.16957 1.15844 2.66663 3.16675 2.66663Z" fill="#DBDFE6"/>
<path d="M24.8334 12.2096H3.16675C1.15844 12.2096 0.666748 12.7873 0.666748 13.5C0.666748 14.2126 1.15844 14.7903 3.16675 14.7903H24.8334C26.8417 14.7903 27.3334 14.2126 27.3334 13.5C27.3334 12.7873 26.8417 12.2096 24.8334 12.2096Z" fill="#DBDFE6"/>
<path d="M24.8334 24.2526H3.16675C1.15844 24.2526 0.666748 24.8303 0.666748 25.543C0.666748 26.2556 1.15844 26.8333 3.16675 26.8333H24.8334C26.8417 26.8333 27.3334 26.2556 27.3334 25.543C27.3334 24.8303 26.8417 24.2526 24.8334 24.2526Z" fill="#DBDFE6"/>
</svg>
