<svg width="28" height="35" viewBox="0 0 28 35" fill="none" xmlns="http://www.w3.org/2000/svg">
<path fill-rule="evenodd" clip-rule="evenodd" d="M26.6334 25.35L27.0334 27.25C27.4125 28.8926 27.0382 30.6187 26.0128 31.9569C24.9875 33.295 23.4181 34.1054 21.7334 34.1666H6.26674C4.58203 34.1054 3.01269 33.295 1.98732 31.9569C0.961952 30.6187 0.587686 28.8926 0.966742 27.25L1.36674 25.35C1.8268 22.7779 4.03778 20.8878 6.65008 20.8333H21.3501C23.9624 20.8878 26.1734 22.7779 26.6334 25.35ZM21.7334 31.65C22.5797 31.6402 23.3762 31.248 23.9001 30.5833V30.6C24.5429 29.7936 24.7933 28.7429 24.5834 27.7333L24.1834 25.8333C23.9615 24.4253 22.7745 23.3709 21.3501 23.3166H6.65008C5.22569 23.3709 4.03869 24.4253 3.81675 25.8333L3.41675 27.7333C3.21201 28.7376 3.46219 29.781 4.10008 30.5833C4.62397 31.248 5.42043 31.6402 6.26675 31.65H21.7334Z" fill="#DBDFE6"/>
<path fill-rule="evenodd" clip-rule="evenodd" d="M14.8334 17.4999H13.1667C9.48482 17.4999 6.50005 14.5152 6.50005 10.8333V6.43328C6.49561 4.94671 7.08418 3.51974 8.13535 2.46857C9.18652 1.4174 10.6135 0.828833 12.1001 0.833277H15.9001C17.3866 0.828833 18.8136 1.4174 19.8648 2.46857C20.9159 3.51974 21.5045 4.94671 21.5001 6.43328V10.8333C21.5001 14.5152 18.5153 17.4999 14.8334 17.4999ZM12.1001 3.33328C10.388 3.33328 9.00005 4.72119 9.00005 6.43328V10.8333C9.00005 13.1345 10.8655 14.9999 13.1667 14.9999H14.8334C17.1346 14.9999 19 13.1345 19 10.8333V6.43328C19 5.61111 18.6734 4.82261 18.0921 4.24125C17.5107 3.65988 16.7222 3.33328 15.9001 3.33328H12.1001Z" fill="#DBDFE6"/>
</svg>
