<svg width="706" height="36" viewBox="0 0 706 36" fill="none" xmlns="http://www.w3.org/2000/svg">
<path d="M97 1H96V2V34V35H97H688C697.389 35 705 27.3888 705 18C705 8.61116 697.389 1 688 1H97Z" stroke="#EA4E48" stroke-width="2"/>
<path d="M97 2H688C696.837 2 704 9.16344 704 18C704 26.8366 696.837 34 688 34H97V2Z" fill="#D9D9D9"/>
<path d="M121.184 25.162C120.632 25.162 120.092 25.12 119.564 25.036C119.036 24.952 118.538 24.826 118.07 24.658C117.602 24.478 117.182 24.262 116.81 24.01C116.63 23.878 116.504 23.728 116.432 23.56C116.372 23.392 116.354 23.23 116.378 23.074C116.414 22.906 116.486 22.762 116.594 22.642C116.702 22.522 116.834 22.45 116.99 22.426C117.146 22.39 117.32 22.438 117.512 22.57C118.052 22.918 118.622 23.176 119.222 23.344C119.822 23.5 120.476 23.578 121.184 23.578C122.204 23.578 122.954 23.398 123.434 23.038C123.926 22.666 124.172 22.186 124.172 21.598C124.172 21.118 123.998 20.74 123.65 20.464C123.302 20.176 122.72 19.948 121.904 19.78L119.978 19.384C118.838 19.144 117.986 18.748 117.422 18.196C116.87 17.644 116.594 16.9 116.594 15.964C116.594 15.4 116.708 14.884 116.936 14.416C117.176 13.948 117.506 13.546 117.926 13.21C118.346 12.862 118.85 12.598 119.438 12.418C120.026 12.238 120.668 12.148 121.364 12.148C122.108 12.148 122.804 12.244 123.452 12.436C124.112 12.628 124.7 12.922 125.216 13.318C125.372 13.426 125.474 13.564 125.522 13.732C125.582 13.888 125.594 14.044 125.558 14.2C125.534 14.356 125.468 14.488 125.36 14.596C125.252 14.704 125.114 14.77 124.946 14.794C124.778 14.806 124.592 14.746 124.388 14.614C123.92 14.302 123.44 14.08 122.948 13.948C122.468 13.804 121.934 13.732 121.346 13.732C120.758 13.732 120.242 13.822 119.798 14.002C119.366 14.182 119.03 14.434 118.79 14.758C118.562 15.082 118.448 15.466 118.448 15.91C118.448 16.414 118.61 16.816 118.934 17.116C119.258 17.416 119.798 17.644 120.554 17.8L122.462 18.196C123.662 18.448 124.556 18.838 125.144 19.366C125.732 19.894 126.026 20.596 126.026 21.472C126.026 22.036 125.912 22.546 125.684 23.002C125.456 23.446 125.132 23.83 124.712 24.154C124.292 24.478 123.782 24.73 123.182 24.91C122.594 25.078 121.928 25.162 121.184 25.162ZM132.075 25.162C131.115 25.162 130.287 24.982 129.591 24.622C128.907 24.25 128.373 23.728 127.989 23.056C127.617 22.372 127.431 21.562 127.431 20.626C127.431 19.714 127.617 18.916 127.989 18.232C128.361 17.548 128.871 17.014 129.519 16.63C130.167 16.246 130.905 16.054 131.733 16.054C132.345 16.054 132.891 16.156 133.371 16.36C133.851 16.552 134.259 16.84 134.595 17.224C134.943 17.596 135.201 18.052 135.369 18.592C135.549 19.132 135.639 19.738 135.639 20.41C135.639 20.614 135.579 20.77 135.459 20.878C135.339 20.974 135.159 21.022 134.919 21.022H128.871V19.906H134.415L134.109 20.158C134.109 19.558 134.019 19.048 133.839 18.628C133.671 18.208 133.413 17.89 133.065 17.674C132.729 17.446 132.309 17.332 131.805 17.332C131.241 17.332 130.761 17.464 130.365 17.728C129.981 17.992 129.687 18.358 129.483 18.826C129.279 19.294 129.177 19.84 129.177 20.464V20.572C129.177 21.628 129.423 22.426 129.915 22.966C130.419 23.494 131.145 23.758 132.093 23.758C132.453 23.758 132.831 23.71 133.227 23.614C133.635 23.518 134.019 23.356 134.379 23.128C134.583 23.008 134.763 22.954 134.919 22.966C135.087 22.978 135.219 23.032 135.315 23.128C135.423 23.224 135.489 23.344 135.513 23.488C135.537 23.632 135.513 23.782 135.441 23.938C135.369 24.082 135.243 24.214 135.063 24.334C134.655 24.61 134.181 24.82 133.641 24.964C133.101 25.096 132.579 25.162 132.075 25.162ZM140.429 25.162C139.817 25.162 139.265 25.042 138.773 24.802C138.293 24.562 137.915 24.238 137.639 23.83C137.363 23.422 137.225 22.96 137.225 22.444C137.225 21.796 137.387 21.286 137.711 20.914C138.047 20.53 138.593 20.26 139.349 20.104C140.117 19.936 141.149 19.852 142.445 19.852H143.291V20.968H142.463C141.599 20.968 140.915 21.01 140.411 21.094C139.907 21.178 139.547 21.322 139.331 21.526C139.127 21.718 139.025 21.988 139.025 22.336C139.025 22.792 139.181 23.164 139.493 23.452C139.805 23.728 140.237 23.866 140.789 23.866C141.233 23.866 141.623 23.764 141.959 23.56C142.295 23.344 142.559 23.056 142.751 22.696C142.955 22.336 143.057 21.922 143.057 21.454V19.384C143.057 18.7 142.913 18.208 142.625 17.908C142.337 17.608 141.863 17.458 141.203 17.458C140.819 17.458 140.417 17.506 139.997 17.602C139.589 17.698 139.163 17.86 138.719 18.088C138.515 18.184 138.341 18.214 138.197 18.178C138.053 18.142 137.939 18.064 137.855 17.944C137.771 17.812 137.723 17.674 137.711 17.53C137.711 17.374 137.747 17.224 137.819 17.08C137.903 16.936 138.041 16.828 138.233 16.756C138.761 16.504 139.283 16.324 139.799 16.216C140.315 16.108 140.801 16.054 141.257 16.054C142.061 16.054 142.721 16.18 143.237 16.432C143.765 16.684 144.155 17.068 144.407 17.584C144.659 18.1 144.785 18.766 144.785 19.582V24.208C144.785 24.496 144.713 24.724 144.569 24.892C144.425 25.048 144.215 25.126 143.939 25.126C143.675 25.126 143.465 25.048 143.309 24.892C143.153 24.724 143.075 24.496 143.075 24.208V23.038H143.237C143.141 23.482 142.961 23.866 142.697 24.19C142.445 24.502 142.127 24.742 141.743 24.91C141.359 25.078 140.921 25.162 140.429 25.162ZM148.207 25.126C147.907 25.126 147.679 25.048 147.523 24.892C147.367 24.724 147.289 24.496 147.289 24.208V17.008C147.289 16.708 147.367 16.48 147.523 16.324C147.679 16.168 147.895 16.09 148.171 16.09C148.459 16.09 148.675 16.168 148.819 16.324C148.975 16.48 149.053 16.708 149.053 17.008V18.322H148.873C149.065 17.602 149.419 17.056 149.935 16.684C150.451 16.312 151.111 16.096 151.915 16.036C152.131 16.024 152.299 16.078 152.419 16.198C152.551 16.318 152.623 16.504 152.635 16.756C152.659 17.008 152.605 17.212 152.473 17.368C152.341 17.512 152.137 17.596 151.861 17.62L151.519 17.656C150.739 17.728 150.145 17.974 149.737 18.394C149.329 18.814 149.125 19.39 149.125 20.122V24.208C149.125 24.496 149.047 24.724 148.891 24.892C148.747 25.048 148.519 25.126 148.207 25.126ZM157.751 25.162C156.851 25.162 156.071 24.976 155.411 24.604C154.763 24.22 154.259 23.686 153.899 23.002C153.539 22.306 153.359 21.49 153.359 20.554C153.359 19.858 153.461 19.234 153.665 18.682C153.869 18.118 154.157 17.644 154.529 17.26C154.913 16.876 155.375 16.582 155.915 16.378C156.467 16.162 157.079 16.054 157.751 16.054C158.171 16.054 158.609 16.12 159.065 16.252C159.533 16.372 159.965 16.576 160.361 16.864C160.517 16.96 160.613 17.08 160.649 17.224C160.697 17.356 160.703 17.494 160.667 17.638C160.643 17.782 160.577 17.908 160.469 18.016C160.373 18.112 160.253 18.172 160.109 18.196C159.965 18.208 159.809 18.166 159.641 18.07C159.353 17.866 159.059 17.722 158.759 17.638C158.459 17.542 158.171 17.494 157.895 17.494C157.463 17.494 157.079 17.566 156.743 17.71C156.419 17.842 156.143 18.04 155.915 18.304C155.687 18.556 155.513 18.874 155.393 19.258C155.285 19.642 155.231 20.08 155.231 20.572C155.231 21.556 155.459 22.33 155.915 22.894C156.383 23.446 157.043 23.722 157.895 23.722C158.171 23.722 158.459 23.68 158.759 23.596C159.059 23.512 159.353 23.368 159.641 23.164C159.809 23.068 159.965 23.032 160.109 23.056C160.253 23.08 160.367 23.146 160.451 23.254C160.547 23.35 160.607 23.47 160.631 23.614C160.667 23.746 160.661 23.884 160.613 24.028C160.565 24.172 160.463 24.292 160.307 24.388C159.923 24.664 159.503 24.862 159.047 24.982C158.603 25.102 158.171 25.162 157.751 25.162ZM163.183 25.126C162.895 25.126 162.673 25.048 162.517 24.892C162.361 24.724 162.283 24.496 162.283 24.208V13.102C162.283 12.802 162.361 12.574 162.517 12.418C162.673 12.262 162.895 12.184 163.183 12.184C163.471 12.184 163.693 12.262 163.849 12.418C164.017 12.574 164.101 12.802 164.101 13.102V18.088H163.849C164.113 17.416 164.527 16.912 165.091 16.576C165.655 16.228 166.303 16.054 167.035 16.054C167.731 16.054 168.307 16.186 168.763 16.45C169.231 16.702 169.579 17.092 169.807 17.62C170.035 18.136 170.149 18.79 170.149 19.582V24.208C170.149 24.496 170.071 24.724 169.915 24.892C169.759 25.048 169.537 25.126 169.249 25.126C168.949 25.126 168.721 25.048 168.565 24.892C168.409 24.724 168.331 24.496 168.331 24.208V19.69C168.331 18.934 168.181 18.382 167.881 18.034C167.593 17.686 167.137 17.512 166.513 17.512C165.781 17.512 165.193 17.74 164.749 18.196C164.317 18.652 164.101 19.264 164.101 20.032V24.208C164.101 24.82 163.795 25.126 163.183 25.126ZM173.536 25.072C173.188 25.072 172.906 24.964 172.69 24.748C172.474 24.532 172.366 24.256 172.366 23.92C172.366 23.584 172.474 23.314 172.69 23.11C172.906 22.894 173.188 22.786 173.536 22.786C173.884 22.786 174.16 22.894 174.364 23.11C174.568 23.314 174.67 23.584 174.67 23.92C174.67 24.256 174.568 24.532 174.364 24.748C174.16 24.964 173.884 25.072 173.536 25.072ZM177.808 25.072C177.46 25.072 177.178 24.964 176.962 24.748C176.746 24.532 176.638 24.256 176.638 23.92C176.638 23.584 176.746 23.314 176.962 23.11C177.178 22.894 177.46 22.786 177.808 22.786C178.156 22.786 178.432 22.894 178.636 23.11C178.84 23.314 178.942 23.584 178.942 23.92C178.942 24.256 178.84 24.532 178.636 24.748C178.432 24.964 178.156 25.072 177.808 25.072ZM182.079 25.072C181.731 25.072 181.449 24.964 181.233 24.748C181.017 24.532 180.909 24.256 180.909 23.92C180.909 23.584 181.017 23.314 181.233 23.11C181.449 22.894 181.731 22.786 182.079 22.786C182.427 22.786 182.703 22.894 182.907 23.11C183.111 23.314 183.213 23.584 183.213 23.92C183.213 24.256 183.111 24.532 182.907 24.748C182.703 24.964 182.427 25.072 182.079 25.072Z" fill="#999090"/>
<path d="M668 2H688C696.837 2 704 9.16344 704 18C704 26.8366 696.837 34 688 34H668V2Z" fill="#EA4E48"/>
<path fill-rule="evenodd" clip-rule="evenodd" d="M693.938 13.6695C692.512 10.2448 689.17 8.01016 685.461 8.00025C681.462 7.9792 677.907 10.5402 676.661 14.3392C675.415 18.1383 676.762 22.3075 679.996 24.6589C683.229 27.0104 687.611 27.0069 690.841 24.6503L693.721 27.5303C694.013 27.8227 694.488 27.8227 694.781 27.5303C695.073 27.2374 695.073 26.7631 694.781 26.4703L691.991 23.6803C694.597 21.0401 695.364 17.0941 693.938 13.6695ZM692.601 20.1692C691.404 23.0549 688.585 24.9343 685.461 24.9303V24.8903C681.22 24.8848 677.778 21.4605 677.751 17.2203C677.747 14.096 679.626 11.2773 682.512 10.0798C685.397 8.88235 688.72 9.5422 690.93 11.7514C693.139 13.9606 693.799 17.2835 692.601 20.1692Z" fill="#DBDFE6"/>
<path d="M0 18C0 8.05888 8.05887 0 18 0H112V36H18C8.05887 36 0 27.9411 0 18Z" fill="#EA4E48"/>
<path d="M88.0001 23.3437C87.801 23.3448 87.61 23.2555 87.4701 23.0962L79.4701 14.0962C79.1947 13.7638 79.2029 13.2457 79.4885 12.9244C79.7741 12.6031 80.2346 12.5939 80.5301 12.9037L88.0001 21.3074L95.4701 12.9037C95.7656 12.5939 96.2261 12.6031 96.5117 12.9244C96.7973 13.2457 96.8054 13.7638 96.5301 14.0962L88.5301 23.0962C88.3902 23.2555 88.1992 23.3448 88.0001 23.3437Z" fill="black"/>
</svg>
