<svg width="18" height="22" viewBox="0 0 18 22" fill="none" xmlns="http://www.w3.org/2000/svg">
<path d="M3.2796 14.9399L6.6896 11.5299C6.98507 11.2372 6.98731 10.7604 6.6946 10.4649C6.40189 10.1695 5.92507 10.1672 5.6296 10.4599L0.999597 15.1499C0.9315 15.2229 0.877278 15.3076 0.839597 15.3999C0.769614 15.5835 0.769614 15.7864 0.839597 15.9699C0.877278 16.0623 0.9315 16.147 0.999597 16.2199L5.6896 20.9099C5.83244 21.0471 6.0216 21.1256 6.2196 21.1299C6.41844 21.1298 6.60908 21.0506 6.7496 20.9099C6.89254 20.7707 6.97317 20.5795 6.97317 20.3799C6.97317 20.1804 6.89254 19.9892 6.7496 19.8499L3.3096 16.4399H12.3096C12.7238 16.4399 13.0596 16.1042 13.0596 15.6899C13.0596 15.2757 12.7238 14.9399 12.3096 14.9399H3.2796Z" fill="#FCFAFA"/>
<path d="M17.1896 5.99995C17.1399 5.91588 17.0755 5.84138 16.9996 5.77995L12.3396 1.08995C12.0468 0.797492 11.5724 0.797492 11.2796 1.08995C11.1367 1.22923 11.056 1.42036 11.056 1.61995C11.056 1.81953 11.1367 2.01066 11.2796 2.14995L14.6896 5.56995H5.6896C5.27538 5.56995 4.9396 5.90573 4.9396 6.31995C4.9396 6.73416 5.27538 7.06995 5.6896 7.06995H14.6896L11.2796 10.4799C11.1367 10.6192 11.056 10.8104 11.056 11.0099C11.056 11.2095 11.1367 11.4007 11.2796 11.5399C11.4201 11.6806 11.6108 11.7598 11.8096 11.7599C12.0076 11.7556 12.1968 11.6771 12.3396 11.5399L16.9996 6.84995C17.0677 6.77704 17.1219 6.69232 17.1596 6.59995C17.2472 6.41144 17.2579 6.19625 17.1896 5.99995Z" fill="#FCFAFA"/>
</svg>
